HIERARCHY
ROOT joint_Root
{
  OFFSET 0 0 0
  CHANNELS 6 Xposition Yposition Zposition Zrotation Xrotation Yrotation
  JOINT Hips
  {
    OFFSET 0 93.9241 -3
    CHANNELS 6 Xposition Yposition Zposition Zrotation Xrotation Yrotation
    JOINT Spine
    {
      OFFSET 15.7357 0 0
      CHANNELS 6 Xposition Yposition Zposition Zrotation Xrotation Yrotation
      JOINT Chest
      {
        OFFSET 8.98455 -0.406207 0
        CHANNELS 6 Xposition Yposition Zposition Zrotation Xrotation Yrotation
        JOINT Neck
        {
          OFFSET 16.3773 0 0
          CHANNELS 6 Xposition Yposition Zposition Zrotation Xrotation Yrotation
          JOINT Head
          {
            OFFSET 6.45672 0 0
            CHANNELS 6 Xposition Yposition Zposition Zrotation Xrotation Yrotation
            End Site
            {
              OFFSET 0 0 0
            }
          }
        }
        JOINT Shoulder_L
        {
          OFFSET 12.9942 -0.242716 4.98039
          CHANNELS 6 Xposition Yposition Zposition Zrotation Xrotation Yrotation
          JOINT UpperArm_L
          {
            OFFSET 5.34809 0 0
            CHANNELS 6 Xposition Yposition Zposition Zrotation Xrotation Yrotation
            JOINT LowerArm_L
            {
              OFFSET 24.3286 1.87007e-05 0
              CHANNELS 6 Xposition Yposition Zposition Zrotation Xrotation Yrotation
              JOINT Hand_L
              {
                OFFSET 22.2916 0 0
                CHANNELS 6 Xposition Yposition Zposition Zrotation Xrotation Yrotation
                End Site
                {
                  OFFSET 0 0 0
                }
              }
            }
          }
        }
        JOINT Shoulder_R
        {
          OFFSET 12.9945 -0.242716 -4.98039
          CHANNELS 6 Xposition Yposition Zposition Zrotation Xrotation Yrotation
          JOINT UpperArm_R
          {
            OFFSET -5.34813 0 0
            CHANNELS 6 Xposition Yposition Zposition Zrotation Xrotation Yrotation
            JOINT LowerArm_R
            {
              OFFSET -24.3289 0.000322201 0
              CHANNELS 6 Xposition Yposition Zposition Zrotation Xrotation Yrotation
              JOINT Hand_R
              {
                OFFSET -22.2915 -0.000108084 0
                CHANNELS 6 Xposition Yposition Zposition Zrotation Xrotation Yrotation
                End Site
                {
                  OFFSET 0 0 0
                }
              }
            }
          }
        }
      }
    }
    JOINT UpperLeg_L
    {
      OFFSET -2.19248 -6.46944 0
      CHANNELS 6 Xposition Yposition Zposition Zrotation Xrotation Yrotation
      JOINT LowerLeg_L
      {
        OFFSET 39.0811 0 -1.23785e-05
        CHANNELS 6 Xposition Yposition Zposition Zrotation Xrotation Yrotation
        JOINT Foot_L
        {
          OFFSET 40.9854 0 -1.26872e-05
          CHANNELS 6 Xposition Yposition Zposition Zrotation Xrotation Yrotation
          JOINT Toes_L
          {
            OFFSET 11.7543 0 0
            CHANNELS 6 Xposition Yposition Zposition Zrotation Xrotation Yrotation
            End Site
            {
              OFFSET 0 0 0
            }
          }
        }
      }
    }
    JOINT UpperLeg_R
    {
      OFFSET -2.19251 6.46944 0
      CHANNELS 6 Xposition Yposition Zposition Zrotation Xrotation Yrotation
      JOINT LowerLeg_R
      {
        OFFSET -39.0811 -0.00228153 -0.0401928
        CHANNELS 6 Xposition Yposition Zposition Zrotation Xrotation Yrotation
        JOINT Foot_R
        {
          OFFSET -40.9854 0 0
          CHANNELS 6 Xposition Yposition Zposition Zrotation Xrotation Yrotation
          JOINT Toes_R
          {
            OFFSET -11.7543 0 0
            CHANNELS 6 Xposition Yposition Zposition Zrotation Xrotation Yrotation
            End Site
            {
              OFFSET 0 0 0
            }
          }
        }
      }
    }
  }
}
MOTION
Frames:	7
Frame Time:	0.0333333
0 0 0 0 0 -0 -8.13528 89.3697 -25.2909 87.7072 13.1992 3.65197 15.7357 5.1072e-06 -5.51765e-07 91.1172 87.359 -91.7982 8.98455 -0.406207 -4.3199e-07 -2.48366 0.163793 -1.35839 16.3773 -1.3905e-06 -6.99897e-07 2.69602 -5.47938 3.72772 6.45672 -1.25837e-06 -1.02172e-07 15.8196 -6.67533 5.07585 12.9942 -0.242716 4.98039 -90.3648 3.04277 -98.1621 5.34809 -7.22636e-06 -6.2814e-07 -72.8353 -43.9277 3.724 24.3286 1.87007e-05 4.90208e-06 19.102 -4.15437 -101.815 22.2916 -9.88446e-07 4.63217e-06 35.8554 5.17309 3.38482 12.9945 -0.242716 -4.98039 89.5949 2.66306 -96.3474 -5.34813 -1.25947e-06 -3.79883e-06 -64.7734 -25.5955 24.8912 -24.3289 0.000322201 -8.65921e-06 -0.18029 -0.959363 -10.5884 -22.2915 -0.000108084 -4.47941e-06 19.8012 5.54821 -8.62219 -2.19248 -6.46944 -1.22534e-07 -170.511 1.88745 -24.2099 39.0811 -6.73843e-06 -1.23785e-05 -0.429621 0.203914 64.1065 40.9854 -6.48686e-06 -1.26872e-05 7.76795 -22.1689 -53.7633 11.7543 -2.30145e-07 3.05095e-06 0.241246 -0.280484 -19.2737 -2.19251 6.46944 -1.45247e-06 -165.535 22.5703 174.808 -39.0811 -0.00228153 -0.0401928 0.114591 -0.212485 23.379 -40.9854 7.72618e-06 5.99936e-06 9.40779 -12.8831 -70.2897 -11.7543 -5.6619e-06 -5.58687e-06 0.0012384 -0.00126879 -16.5837 
0 0 0 0 0 -0 -8.37939 89.291 -25.869 86.9692 13.4189 3.61104 15.7357 5.1072e-06 -5.51765e-07 82.4068 87.7255 -82.8886 8.98455 -0.406207 -4.3199e-07 -3.25922 -0.554476 -0.979498 16.3773 -1.3905e-06 -6.99897e-07 3.39263 -5.60009 4.33322 6.45672 -1.25837e-06 -1.02172e-07 16.2018 -6.29419 5.31194 12.9942 -0.242716 4.98039 -90.2772 2.47031 -98.5962 5.34809 -7.22636e-06 -6.2814e-07 -74.8128 -42.1354 1.73378 24.3286 1.87007e-05 4.90208e-06 18.9708 -4.49476 -102.843 22.2916 -9.88446e-07 4.63217e-06 36.5461 5.17168 3.41934 12.9945 -0.242716 -4.98039 89.5074 2.94696 -95.5041 -5.34813 -1.25947e-06 -3.79883e-06 -62.75 -26.6186 27.3531 -24.3289 0.000322201 -8.65921e-06 -0.184035 -1.07972 -9.61937 -22.2915 -0.000108084 -4.47941e-06 19.5141 5.53729 -8.11885 -2.19248 -6.46944 -1.22534e-07 -169.501 0.824864 -20.9965 39.0811 -6.73843e-06 -1.23785e-05 -0.43585 0.189863 66.1659 40.9854 -6.48686e-06 -1.26872e-05 7.6259 -21.4345 -53.5613 11.7543 -2.30145e-07 3.05095e-06 0.244501 -0.284435 -19.3108 -2.19251 6.46944 -1.45247e-06 -164.558 23.5709 174.083 -39.0811 -0.00228153 -0.0401928 0.116222 -0.218656 23.3774 -40.9854 7.72618e-06 5.99936e-06 9.8963 -11.976 -70.0349 -11.7543 -5.6619e-06 -5.58687e-06 0.0203919 -0.0211588 -16.7375 
0 0 0 0 0 -0 -8.5357 89.2688 -26.4871 86.2304 13.1574 3.78966 15.7357 5.1072e-06 -5.51765e-07 73.5268 87.886 -73.7817 8.98455 -0.406207 -4.3199e-07 -3.71464 -1.1726 -0.548082 16.3773 -1.3905e-06 -6.99897e-07 3.95345 -5.64301 4.76786 6.45672 -1.25837e-06 -1.02172e-07 16.4246 -5.69827 5.59238 12.9942 -0.242716 4.98039 -90.1944 1.82026 -98.9064 5.34809 -7.22636e-06 -6.2814e-07 -75.7359 -40.2827 0.357549 24.3286 1.87007e-05 4.90208e-06 18.7056 -4.43142 -102.855 22.2916 -9.88446e-07 4.63217e-06 37.3672 5.17885 3.24505 12.9945 -0.242716 -4.98039 89.417 3.19332 -94.6489 -5.34813 -1.25947e-06 -3.79883e-06 -61.0653 -27.1926 29.316 -24.3289 0.000322201 -8.65921e-06 -0.170223 -1.06134 -9.05801 -22.2915 -0.000108084 -4.47941e-06 19.4701 5.54017 -8.25016 -2.19248 -6.46944 -1.22534e-07 -168.663 -0.296895 -16.8241 39.0811 -6.73843e-06 -1.23785e-05 -0.364649 0.157428 66.649 40.9854 -6.48686e-06 -1.26872e-05 5.91837 -17.7965 -53.618 11.7543 -2.30145e-07 3.05095e-06 0.253161 -0.295012 -19.4102 -2.19251 6.46944 -1.45247e-06 -163.741 24.1965 173.788 -39.0811 -0.00228153 -0.0401928 0.119108 -0.230257 23.1446 -40.9854 7.72618e-06 5.99936e-06 10.3436 -11.067 -69.6138 -11.7543 -5.6619e-06 -5.58687e-06 0.027842 -0.0289183 -16.7973 
0 0 0 0 0 -0 -8.61483 89.3195 -27.2237 85.6545 12.7173 4.01136 15.7357 5.1072e-06 -5.51765e-07 63.5294 88.0012 -63.6105 8.98455 -0.406207 -4.3199e-07 -4.18995 -1.77204 -0.22719 16.3773 -1.3905e-06 -6.99897e-07 4.71891 -5.66385 5.10956 6.45672 -1.25837e-06 -1.02172e-07 16.7944 -5.06204 5.89898 12.9942 -0.242716 4.98039 -90.1325 1.27801 -99.0833 5.34809 -7.22636e-06 -6.2814e-07 -76.0415 -38.7525 -0.516867 24.3286 1.87007e-05 4.90208e-06 18.8143 -4.15802 -102.015 22.2916 -9.88446e-07 4.63217e-06 37.705 5.18331 3.13432 12.9945 -0.242716 -4.98039 89.3226 3.39245 -93.7016 -5.34813 -1.25947e-06 -3.79883e-06 -59.5564 -27.5663 31.1222 -24.3289 0.000322201 -8.65921e-06 -0.137898 -0.88801 -8.75907 -22.2915 -0.000108084 -4.47941e-06 19.7172 5.54834 -8.62807 -2.19248 -6.46944 -1.22534e-07 -168.032 -1.29166 -12.0453 39.0811 -6.73843e-06 -1.23785e-05 -0.204017 0.0982819 65.0943 40.9854 -6.48686e-06 -1.26872e-05 1.47951 -10.4163 -54.0262 11.7543 -2.30145e-07 3.05095e-06 0.270878 -0.316828 -19.6151 -2.19251 6.46944 -1.45247e-06 -163.188 25.014 173.661 -39.0811 -0.00228153 -0.0401928 0.120246 -0.241615 22.6864 -40.9854 7.72618e-06 5.99936e-06 10.8415 -9.81019 -69.0412 -11.7543 -5.6619e-06 -5.58687e-06 0.0179315 -0.0186001 -16.7177 
0 0 0 0 0 -0 -8.64249 89.4038 -28.1871 85.1461 12.1659 4.09975 15.7357 5.1072e-06 -5.51765e-07 51.8423 88.0937 -51.72 8.98455 -0.406207 -4.3199e-07 -4.76779 -2.36672 0.146292 16.3773 -1.3905e-06 -6.99897e-07 5.50916 -5.67045 5.31012 6.45672 -1.25837e-06 -1.02172e-07 17.5177 -4.41731 6.1323 12.9942 -0.242716 4.98039 -90.0994 1.00425 -99.3419 5.34809 -7.22636e-06 -6.2814e-07 -76.3051 -38.119 -0.961282 24.3286 1.87007e-05 4.90208e-06 19.8197 -3.94139 -100.798 22.2916 -9.88446e-07 4.63217e-06 37.4518 5.17819 3.26022 12.9945 -0.242716 -4.98039 89.2205 3.53664 -92.561 -5.34813 -1.25947e-06 -3.79883e-06 -58.0354 -27.6159 32.6699 -24.3289 0.000322201 -8.65921e-06 -0.11598 -0.735248 -8.88696 -22.2915 -0.000108084 -4.47941e-06 19.3435 5.54268 -8.36458 -2.19248 -6.46944 -1.22534e-07 -167.467 -2.17959 -7.13797 39.0811 -6.73843e-06 -1.23785e-05 -0.0210477 0.0181931 61.3143 40.9854 -6.48686e-06 -1.26872e-05 -5.17869 2.13531 -53.4545 11.7543 -2.30145e-07 3.05095e-06 0.248047 -0.288783 -19.3517 -2.19251 6.46944 -1.45247e-06 -162.628 25.311 173.289 -39.0811 -0.00228153 -0.0401928 0.120211 -0.250533 22.2223 -40.9854 7.72618e-06 5.99936e-06 11.3336 -8.69535 -68.2429 -11.7543 -5.6619e-06 -5.58687e-06 0.0212037 -0.0220001 -16.744 
0 0 0 0 0 -0 -8.61116 89.4863 -29.4703 84.6616 11.6559 4.05534 15.7357 5.1072e-06 -5.51765e-07 38.3708 88.0124 -38.0044 8.98455 -0.406207 -4.3199e-07 -5.29265 -3.15469 0.587711 16.3773 -1.3905e-06 -6.99897e-07 6.3133 -5.63615 5.45796 6.45672 -1.25837e-06 -1.02172e-07 18.1083 -3.66052 6.12358 12.9942 -0.242716 4.98039 -90.0734 0.791306 -99.6972 5.34809 -7.22636e-06 -6.2814e-07 -76.9698 -38.1012 -1.11696 24.3286 1.87007e-05 4.90208e-06 19.3846 -3.34258 -99.4084 22.2916 -9.88446e-07 4.63217e-06 39.0637 5.1871 3.04137 12.9945 -0.242716 -4.98039 89.1124 3.69531 -91.4824 -5.34813 -1.25947e-06 -3.79883e-06 -56.1315 -28.0267 34.0996 -24.3289 0.000322201 -8.65921e-06 -0.117063 -0.680471 -9.68315 -22.2915 -0.000108084 -4.47941e-06 18.4327 5.54093 -8.28439 -2.19248 -6.46944 -1.22534e-07 -167.213 -2.936 -2.61403 39.0811 -6.73843e-06 -1.23785e-05 0.0730797 -0.0419082 55.4651 40.9854 -6.48686e-06 -1.26872e-05 -12.6816 14.8591 -49.7995 11.7543 -2.30145e-07 3.05095e-06 0.267443 -0.312607 -19.5755 -2.19251 6.46944 -1.45247e-06 -161.968 25.4207 172.419 -39.0811 -0.00228153 -0.0401928 0.122193 -0.261007 21.92 -40.9854 7.72618e-06 5.99936e-06 11.794 -7.85664 -67.2539 -11.7543 -5.6619e-06 -5.58687e-06 0.0291484 -0.0302837 -16.8079 
0 0 0 0 0 -0 -8.50723 89.6304 -31.1209 84.4673 11.3597 3.91013 15.7357 5.1072e-06 -5.51765e-07 27.1337 87.7233 -26.5634 8.98455 -0.406207 -4.3199e-07 -5.6767 -4.11368 0.938182 16.3773 -1.3905e-06 -6.99897e-07 6.91876 -5.49863 5.41265 6.45672 -1.25837e-06 -1.02172e-07 18.7337 -2.83674 5.76744 12.9942 -0.242716 4.98039 -90.0563 0.657838 -100.112 5.34809 -7.22636e-06 -6.2814e-07 -77.6296 -38.1881 -1.0973 24.3286 1.87007e-05 4.90208e-06 17.8423 -2.40268 -97.4194 22.2916 -9.88446e-07 4.63217e-06 41.73 5.1945 2.85991 12.9945 -0.242716 -4.98039 88.9521 4.04388 -90.4592 -5.34813 -1.25947e-06 -3.79883e-06 -54.0522 -28.3247 35.3572 -24.3289 0.000322201 -8.65921e-06 -0.0621255 -0.307981 -11.2328 -22.2915 -0.000108084 -4.47941e-06 18.3298 5.54932 -8.67446 -2.19248 -6.46944 -1.22534e-07 -168.048 -3.78067 0.980572 39.0811 -6.73843e-06 -1.23785e-05 0.0426017 -0.0274816 48.4794 40.9854 -6.48686e-06 -1.26872e-05 -15.7441 20.1124 -44.0412 11.7543 -2.30145e-07 3.05095e-06 0.290594 -0.341266 -19.8439 -2.19251 6.46944 -1.45247e-06 -161.548 25.8702 171.247 -39.0811 -0.00228153 -0.0401928 0.117954 -0.259296 21.4858 -40.9854 7.72618e-06 5.99936e-06 12.3186 -6.7649 -65.9864 -11.7543 -5.6619e-06 -5.58687e-06 0.0174236 -0.0180708 -16.7136 
